<?xml version="1.0" standalone="no"?>
<!DOCTYPE svg PUBLIC "-//W3C//DTD SVG 20010904//EN"
 "http://www.w3.org/TR/2001/REC-SVG-20010904/DTD/svg10.dtd">
<svg version="1.0" xmlns="http://www.w3.org/2000/svg"
 width="512.000000pt" height="512.000000pt" viewBox="0 0 512.000000 512.000000"
 preserveAspectRatio="xMidYMid meet">

<g transform="translate(0.000000,512.000000) scale(0.100000,-0.100000)"
fill="#000000" stroke="none">
<path d="M2355 4740 c-190 -19 -428 -74 -575 -132 -181 -71 -408 -200 -560
-317 -111 -85 -320 -294 -399 -399 -112 -149 -249 -389 -306 -538 l-27 -72
-82 -4 c-69 -4 -95 -10 -157 -40 -81 -39 -158 -108 -190 -169 -44 -88 -49
-135 -49 -495 0 -189 5 -365 10 -395 36 -189 211 -329 411 -329 l57 0 37 -95
c44 -111 143 -294 223 -413 276 -410 735 -746 1197 -876 530 -148 1093 -101
1555 129 370 184 666 439 876 755 97 145 186 313 235 444 l20 56 58 0 c120 0
225 45 308 133 58 61 89 122 103 200 7 35 10 196 8 419 -3 354 -4 364 -27 421
-53 134 -206 238 -369 254 l-84 8 -34 86 c-65 165 -196 389 -312 536 -156 196
-357 378 -557 504 -351 220 -698 326 -1100 334 -99 2 -220 0 -270 -5z m515
-345 c827 -147 1449 -809 1539 -1637 60 -545 -139 -1107 -527 -1495 -279 -279
-621 -457 -1017 -529 -141 -26 -469 -26 -610 0 -617 112 -1119 494 -1381 1050
-365 776 -139 1710 541 2241 276 216 598 344 975 389 78 9 389 -3 480 -19z"/>
<path d="M3550 3462 c-8 -2 -34 -13 -57 -23 -23 -11 -48 -19 -55 -19 -7 0 -22
-7 -32 -15 -11 -8 -26 -15 -34 -15 -8 0 -33 -9 -56 -19 -47 -22 -184 -78 -271
-111 -90 -34 -96 -37 -145 -58 -25 -11 -62 -25 -82 -32 -21 -6 -40 -16 -43
-21 -4 -5 -13 -9 -22 -9 -8 0 -29 -6 -46 -14 -164 -74 -170 -74 -334 0 -17 8
-37 14 -45 14 -8 0 -23 7 -34 15 -10 8 -26 15 -34 15 -8 0 -33 9 -55 20 -22
11 -44 19 -48 20 -5 0 -23 6 -40 14 -76 34 -130 56 -139 56 -6 0 -24 6 -41 14
-18 8 -61 27 -97 41 -36 14 -79 33 -97 41 -17 8 -37 14 -45 14 -7 0 -22 7 -32
15 -11 8 -26 15 -33 15 -8 0 -34 9 -59 21 -25 11 -53 19 -61 17 -9 -2 -38 -46
-66 -98 -27 -52 -64 -124 -83 -159 -19 -35 -34 -69 -34 -75 0 -6 31 -26 68
-44 37 -18 101 -51 142 -73 41 -22 120 -64 175 -93 55 -30 132 -70 170 -91 39
-20 111 -58 160 -83 50 -26 92 -50 95 -53 3 -4 16 -10 30 -14 14 -4 30 -12 37
-17 6 -5 49 -29 95 -53 45 -24 83 -49 83 -55 0 -10 -146 -96 -205 -120 -14 -5
-32 -14 -40 -19 -14 -7 -53 -29 -255 -136 -38 -21 -101 -54 -140 -74 -38 -20
-72 -38 -75 -41 -3 -3 -50 -27 -105 -55 -55 -27 -102 -52 -105 -55 -3 -3 -32
-18 -65 -35 -70 -35 -79 -44 -61 -65 7 -8 25 -40 41 -70 15 -30 50 -98 78
-152 l49 -96 31 11 c18 6 43 16 57 24 14 7 32 13 41 13 8 0 24 7 35 15 10 8
25 15 32 15 8 0 28 6 45 14 18 8 61 26 97 41 36 14 74 30 85 35 63 28 146 60
160 60 8 0 15 4 15 9 0 5 15 12 33 16 17 4 46 13 62 20 17 8 59 25 95 40 36
14 74 30 85 35 144 64 157 66 240 35 39 -14 79 -30 90 -35 11 -5 49 -21 85
-35 36 -15 79 -33 97 -41 17 -8 36 -14 43 -14 7 0 24 -7 38 -14 15 -8 92 -40
172 -72 80 -31 163 -64 185 -74 140 -60 226 -91 242 -85 10 3 38 48 62 98 25
51 50 99 57 107 7 8 16 27 19 43 4 15 10 27 14 27 12 0 33 52 24 61 -4 4 -46
28 -93 52 -47 24 -119 61 -160 83 -41 21 -77 41 -80 44 -3 3 -39 22 -80 44
-41 21 -118 61 -170 88 -52 28 -147 78 -210 111 -221 115 -270 142 -270 148 0
5 112 69 195 109 28 14 52 27 55 30 3 3 39 22 80 43 41 22 129 67 195 102 66
35 154 80 195 101 41 22 77 41 80 44 3 3 30 17 60 33 70 35 202 106 207 111 3
2 -15 39 -38 83 -23 43 -62 116 -86 163 -50 97 -52 99 -73 92z"/>
</g>
</svg>
