<?xml version="1.0" standalone="no"?>
<!DOCTYPE svg PUBLIC "-//W3C//DTD SVG 20010904//EN"
 "http://www.w3.org/TR/2001/REC-SVG-20010904/DTD/svg10.dtd">
<svg version="1.0" xmlns="http://www.w3.org/2000/svg"
 width="512.000000pt" height="512.000000pt" viewBox="0 0 512.000000 512.000000"
 preserveAspectRatio="xMidYMid meet">

<g transform="translate(0.000000,512.000000) scale(0.100000,-0.100000)"
fill="#000000" stroke="none">
<path d="M2355 4740 c-190 -19 -428 -74 -575 -132 -181 -71 -408 -200 -560
-317 -111 -85 -320 -294 -399 -399 -112 -149 -249 -389 -306 -538 l-27 -72
-82 -4 c-69 -4 -95 -10 -157 -40 -81 -39 -158 -108 -190 -169 -44 -88 -49
-135 -49 -495 0 -189 5 -365 10 -395 36 -189 211 -329 411 -329 l57 0 37 -95
c44 -111 143 -294 223 -413 276 -410 735 -746 1197 -876 530 -148 1093 -101
1555 129 370 184 666 439 876 755 97 145 186 313 235 444 l20 56 58 0 c120 0
225 45 308 133 58 61 89 122 103 200 7 35 10 196 8 419 -3 354 -4 364 -27 421
-53 134 -206 238 -369 254 l-84 8 -34 86 c-65 165 -196 389 -312 536 -156 196
-357 378 -557 504 -351 220 -698 326 -1100 334 -99 2 -220 0 -270 -5z m515
-345 c827 -147 1449 -809 1539 -1637 60 -545 -139 -1107 -527 -1495 -279 -279
-621 -457 -1017 -529 -141 -26 -469 -26 -610 0 -617 112 -1119 494 -1381 1050
-365 776 -139 1710 541 2241 276 216 598 344 975 389 78 9 389 -3 480 -19z"/>
<path d="M2168 4245 c-4 -11 -9 -63 -13 -115 -25 -366 -70 -537 -193 -718 -90
-132 -252 -279 -388 -349 -165 -86 -303 -117 -629 -139 -55 -3 -106 -10 -113
-14 -8 -3 53 -12 135 -19 347 -29 458 -55 618 -148 148 -86 304 -228 377 -343
129 -202 167 -344 193 -721 4 -53 10 -101 14 -107 4 -6 15 80 25 191 20 234
36 322 76 421 117 295 345 518 645 631 97 36 178 51 408 71 109 10 192 21 185
25 -7 3 -56 10 -108 13 -378 27 -533 68 -721 191 -135 89 -289 265 -368 421
-74 148 -92 228 -120 534 -9 107 -20 186 -23 175z"/>
<path d="M3261 2634 c0 -7 -6 -58 -12 -115 -21 -216 -56 -316 -152 -444 -125
-167 -282 -246 -529 -267 -76 -7 -138 -15 -138 -19 0 -3 46 -10 103 -13 240
-17 370 -68 502 -199 70 -70 90 -98 134 -187 54 -109 55 -117 89 -390 8 -65 8
-65 21 80 16 174 42 266 106 370 125 203 294 298 578 324 78 7 135 15 127 18
-8 3 -73 11 -143 17 -210 18 -318 64 -450 190 -82 79 -131 151 -168 246 -26
66 -33 104 -58 325 -5 41 -9 70 -10 64z"/>
</g>
</svg>
